<?xml version="1.0" encoding="UTF-8"?>
<svg id="Layer_2" data-name="Layer 2" xmlns="http://www.w3.org/2000/svg" viewBox="0 0 800 800">
  <defs>
    <style>
      .cls-1 {
        fill: #222;
      }

      .cls-1, .cls-2, .cls-3 {
        stroke-width: 0px;
      }

      .cls-2 {
        fill: #8888de;
      }

      .cls-3 {
        fill: #fff;
      }
    </style>
  </defs>
  <g id="Layer_1-2" data-name="Layer 1">
    <g>
      <rect class="cls-1" width="800" height="800" rx="160" ry="160"/>
      <path id="L" class="cls-2" d="M131.88,704.49h0s0,0,0,0c50.39-24.31,82.42-75.32,82.42-131.27V135.27s-82.42-39.76-82.42-39.76v-15.52h320.97v15.52l-92.12,39.76v446.48c0,46.89,38.02,84.91,84.91,84.91h128.42l123.23-385.32h22.72s0,438.65,0,438.65H147.39c-8.57,0-15.51-6.95-15.51-15.51Z"/>
      <path id="W" class="cls-3" d="M249.12,609.56l-104.31-330.84c-10.5-33.31-33.82-61.07-64.81-77.17h0v-11.11h198.04v11.11l-13.01,5.88c-22.8,10.31-34.46,35.89-27.3,59.87l59.8,200.18h3.14l109.39-277.04h37.09l108.76,277.04h3.14l72.93-241.42-54.07-24.52v-11.11h142.08v11.11l-42.12,22.63-123.22,385.38h-36.46l-112.53-279.14h-4.4l-115.68,279.14h-36.46Z"/>
    </g>
  </g>
</svg>