<?xml version="1.0" encoding="UTF-8"?>
<svg id="Layer_1" data-name="Layer 1" xmlns="http://www.w3.org/2000/svg" viewBox="0 0 256 256">
  <defs>
    <style>
      .cls-1 {
        fill: #222;
      }

      .cls-1, .cls-2 {
        stroke-width: 0px;
      }

      .cls-2 {
        fill: #fff;
        fill-rule: evenodd;
      }
    </style>
  </defs>
  <rect class="cls-1" width="256" height="256"/>
  <path class="cls-2" d="M128.08,33.6c-53.13,0-96.08,43.27-96.08,96.79,0,42.79,27.52,79,65.7,91.82,4.77.96,6.52-2.08,6.52-4.65,0-2.24-.16-9.94-.16-17.95-26.73,5.77-32.29-11.54-32.29-11.54-4.3-11.22-10.66-14.1-10.66-14.1-8.75-5.93.64-5.93.64-5.93,9.7.64,14.8,9.94,14.8,9.94,8.59,14.74,22.43,10.58,28,8.01.79-6.25,3.34-10.58,6.05-12.98-21.32-2.24-43.74-10.58-43.74-47.76,0-10.58,3.82-19.23,9.86-25.96-.95-2.4-4.3-12.34.96-25.64,0,0,8.11-2.56,26.4,9.94,7.83-2.12,15.91-3.2,24.02-3.21,8.11,0,16.38,1.12,24.02,3.21,18.29-12.5,26.41-9.94,26.41-9.94,5.25,13.3,1.91,23.24.95,25.64,6.2,6.73,9.86,15.38,9.86,25.96,0,37.18-22.43,45.35-43.9,47.76,3.5,3.04,6.52,8.81,6.52,17.95,0,12.98-.16,23.4-.16,26.6,0,2.56,1.75,5.61,6.52,4.65,38.18-12.82,65.7-49.04,65.7-91.83.16-53.53-42.95-96.79-95.92-96.79Z"/>
</svg>