<?xml version="1.0" encoding="UTF-8"?>
<svg id="Layer_1" data-name="Layer 1" xmlns="http://www.w3.org/2000/svg" viewBox="0 0 256 256">
  <defs>
    <style>
      .cls-1 {
        fill: #222;
      }

      .cls-1, .cls-2 {
        stroke-width: 0px;
      }

      .cls-2 {
        fill: #fff;
      }
    </style>
  </defs>
  <rect class="cls-1" width="256" height="256"/>
  <path class="cls-2" d="M88.24,32.67c-10.21.48-17.19,2.11-23.29,4.51-6.31,2.46-11.66,5.76-16.98,11.1-5.32,5.34-8.6,10.69-11.04,17.02-2.36,6.11-3.96,13.09-4.42,23.31-.45,10.22-.55,13.51-.5,39.58.05,26.07.17,29.34.66,39.58.49,10.21,2.11,17.19,4.51,23.29,2.46,6.31,5.76,11.66,11.1,16.98,5.34,5.32,10.69,8.59,17.03,11.04,6.11,2.36,13.09,3.97,23.31,4.42,10.22.45,13.51.55,39.57.5,26.06-.05,29.34-.17,39.58-.65s17.18-2.12,23.28-4.51c6.31-2.47,11.66-5.76,16.98-11.11,5.32-5.35,8.6-10.7,11.04-17.03,2.37-6.11,3.97-13.09,4.42-23.3.45-10.25.55-13.52.5-39.59-.05-26.07-.17-29.33-.65-39.57s-2.11-17.19-4.51-23.29c-2.47-6.31-5.76-11.65-11.1-16.98-5.34-5.33-10.7-8.6-17.02-11.04-6.11-2.36-13.09-3.97-23.31-4.42s-13.51-.55-39.58-.5c-26.07.05-29.34.16-39.58.66M89.36,206.22c-9.36-.41-14.44-1.96-17.83-3.26-4.49-1.73-7.68-3.82-11.06-7.16-3.38-3.34-5.45-6.55-7.2-11.02-1.32-3.39-2.9-8.46-3.34-17.82-.48-10.12-.58-13.15-.63-38.78-.06-25.63.04-28.66.49-38.78.4-9.35,1.96-14.44,3.26-17.83,1.73-4.49,3.81-7.68,7.16-11.05s6.55-5.45,11.03-7.2c3.38-1.32,8.46-2.89,17.82-3.34,10.12-.48,13.16-.58,38.78-.63,25.63-.06,28.67.04,38.8.49,9.35.41,14.44,1.96,17.82,3.26,4.49,1.73,7.68,3.8,11.05,7.16,3.37,3.36,5.45,6.54,7.2,11.03,1.32,3.37,2.89,8.45,3.34,17.81.48,10.12.59,13.16.64,38.78.05,25.62-.04,28.67-.49,38.78-.41,9.36-1.96,14.44-3.26,17.84-1.73,4.48-3.81,7.68-7.16,11.05-3.35,3.37-6.55,5.45-11.03,7.2-3.38,1.32-8.46,2.89-17.81,3.34-10.12.48-13.16.58-38.79.63s-28.66-.05-38.78-.49M167.62,76.69c.01,6.36,5.18,11.51,11.54,11.5,6.36-.01,11.51-5.18,11.5-11.54-.01-6.36-5.18-11.51-11.54-11.5,0,0,0,0,0,0-6.36.01-11.51,5.18-11.5,11.54M78.71,128.1c.05,27.23,22.16,49.25,49.38,49.19,27.22-.05,49.26-22.16,49.2-49.39-.05-27.23-22.17-49.25-49.39-49.2-27.22.05-49.25,22.17-49.2,49.39M96,128.06c-.03-17.67,14.26-32.03,31.94-32.06,17.67-.03,32.03,14.26,32.06,31.94.03,17.67-14.26,32.03-31.94,32.06-17.67.04-32.03-14.26-32.06-31.93h0"/>
</svg>