<?xml version="1.0" encoding="UTF-8"?>
<svg id="Layer_1" xmlns="http://www.w3.org/2000/svg" version="1.1" viewBox="0 0 256 256">
  <!-- Generator: Adobe Illustrator 29.8.0, SVG Export Plug-In . SVG Version: 2.1.1 Build 160)  -->
  <defs>
    <style>
      .st0 {
        fill: #fff;
      }

      .st1 {
        fill: #222;
      }
    </style>
  </defs>
  <rect class="st1" width="256" height="256"/>
  <path class="st0" d="M116.67,169.68l-7.04-19.13s-11.44,12.76-28.59,12.76c-15.18,0-25.95-13.2-25.95-34.31,0-27.05,13.63-36.73,27.05-36.73,19.35,0,25.51,12.54,30.79,28.59l7.04,21.99c7.04,21.33,20.23,38.49,58.28,38.49,27.27,0,45.75-8.36,45.75-30.35,0-17.81-10.12-27.05-29.03-31.45l-14.07-3.08c-9.68-2.2-12.53-6.16-12.53-12.76,0-7.48,5.94-11.88,15.62-11.88,10.56,0,16.27,3.96,17.15,13.42l21.99-2.64c-1.76-19.79-15.39-27.93-37.83-27.93-19.79,0-39.15,7.48-39.15,31.45,0,14.96,7.26,24.41,25.51,28.81l14.96,3.52c11.22,2.64,14.95,7.26,14.95,13.64,0,8.14-7.92,11.44-22.87,11.44-22.21,0-31.45-11.66-36.73-27.71l-7.26-21.99c-9.24-28.59-23.97-39.15-53.22-39.15-32.33,0-49.48,20.45-49.48,55.2s17.16,51.46,47.95,51.46c24.85,0,36.73-11.66,36.73-11.66Z"/>
</svg>