<svg id="eedD29NRxyr1" xmlns="http://www.w3.org/2000/svg" xmlns:xlink="http://www.w3.org/1999/xlink" viewBox="0 0 620.2 620.2" shape-rendering="geometricPrecision" text-rendering="geometricPrecision"><g id="eedD29NRxyr2"><path d="M304.64,590.8v0c-33.58,51.14-112.77,31.81-119.02-29.05v0c-3.93-38.33-40.14-64.84-77.87-57.02v0c-59.9,12.41-102.24-57.25-63.62-104.7v0c24.32-29.88,17.46-74.24-14.74-95.38v0c-51.14-33.58-31.81-112.77,29.05-119.02v0c38.32-3.93,64.84-40.14,57.02-77.87v0c-12.41-59.9,57.25-102.24,104.7-63.62v0C250.04,68.46,294.4,61.6,315.54,29.4v0c33.58-51.14,112.77-31.81,119.02,29.05v0c3.93,38.33,40.14,64.84,77.87,57.02v0c59.9-12.41,102.24,57.25,63.62,104.7v0c-24.32,29.88-17.46,74.24,14.74,95.38v0c51.14,33.58,31.81,112.77-29.05,119.02v0c-38.32,3.93-64.84,40.14-57.02,77.87v0c12.41,59.9-57.25,102.24-104.7,63.62v0c-29.88-24.32-74.24-17.46-95.38,14.74Z" transform="matrix(.942702 0 0 0.942698 17.767538 17.769351)" fill="#8888de"/></g>
</svg>
