<?xml version="1.0" encoding="UTF-8"?>
<svg id="Layer_1" data-name="Layer 1" xmlns="http://www.w3.org/2000/svg" viewBox="0 0 256 256">
  <defs>
    <style>
      .cls-1 {
        fill: #222;
      }

      .cls-1, .cls-2 {
        stroke-width: 0px;
      }

      .cls-2 {
        fill: #fff;
      }
    </style>
  </defs>
  <rect class="cls-1" width="256" height="256"/>
  <rect class="cls-1" width="256" height="256"/>
  <g>
    <path class="cls-2" d="M195.2,204.8H60.8c-15.88,0-28.8-12.92-28.8-28.8v-96c0-15.88,12.92-28.8,28.8-28.8h134.4c15.88,0,28.8,12.92,28.8,28.8v96c0,15.88-12.92,28.8-28.8,28.8ZM60.8,70.4c-5.29,0-9.6,4.31-9.6,9.6v96c0,5.29,4.31,9.6,9.6,9.6h134.4c5.29,0,9.6-4.31,9.6-9.6v-96c0-5.29-4.31-9.6-9.6-9.6H60.8Z"/>
    <path class="cls-2" d="M128,147.2c-1.86,0-3.71-.54-5.32-1.61l-86.4-57.6c-4.41-2.94-5.61-8.9-2.66-13.31,2.94-4.41,8.9-5.61,13.31-2.66l81.07,54.05,81.07-54.05c4.42-2.94,10.37-1.75,13.31,2.66,2.94,4.41,1.75,10.37-2.66,13.31l-86.4,57.6c-1.61,1.08-3.47,1.61-5.32,1.61Z"/>
  </g>
</svg>