<?xml version="1.0" encoding="UTF-8"?>
<svg id="Layer_1" data-name="Layer 1" xmlns="http://www.w3.org/2000/svg" viewBox="0 0 256 256">
  <defs>
    <style>
      .cls-1 {
        fill: #222;
      }

      .cls-1, .cls-2 {
        stroke-width: 0px;
      }

      .cls-2 {
        fill: #fff;
      }
    </style>
  </defs>
  <rect class="cls-1" width="256" height="256"/>
  <g id="g8">
    <g id="g10">
      <path id="path12" class="cls-2" d="M92.36,217.16c-1.2-10.92-.36-21.36,2.04-31.44l9.6-41.4c-1.56-5.04-2.76-10.8-2.76-16.56,0-13.44,6.48-23.04,16.68-23.04,7.08,0,12.24,4.92,12.24,14.4,0,3-.6,6.36-1.8,10.2l-4.2,13.8c-.84,2.64-1.2,5.16-1.2,7.32,0,9.6,7.32,15,16.68,15,16.68,0,28.56-17.28,28.56-39.72,0-24.96-16.32-40.92-40.44-40.92-26.88,0-43.92,17.52-43.92,41.88,0,9.84,3,18.96,8.88,25.2-1.92,3.24-3.96,3.84-7.08,3.84-9.6,0-18.72-13.56-18.72-32.04,0-31.92,25.56-57.36,61.44-57.36,37.68,0,61.32,26.28,61.32,58.68s-23.04,57.12-47.88,57.12c-9.84,0-18.48-4.2-24.48-11.76l-4.92,19.92c-2.64,10.32-6.6,20.04-12.96,29.4,9,2.76,17.88,4.32,28.56,4.32,53.04,0,96-42.96,96-96s-42.96-96-96-96-96,42.96-96,96c0,40.2,24.72,74.88,60.36,89.16"/>
    </g>
  </g>
</svg>