<?xml version="1.0" encoding="UTF-8"?>
<svg id="Layer_1" data-name="Layer 1" xmlns="http://www.w3.org/2000/svg" viewBox="0 0 256 256">
  <defs>
    <style>
      .cls-1 {
        fill: #222;
      }

      .cls-1, .cls-2 {
        stroke-width: 0px;
      }

      .cls-2 {
        fill: #fff;
      }
    </style>
  </defs>
  <rect class="cls-1" width="256" height="256"/>
  <path class="cls-2" d="M128,32c-52.99,0-96,43.01-96,96s43.01,96,96,96,96-43.01,96-96-43.01-96-96-96ZM166.98,173.25c-1.63,0-2.63-.5-4.14-1.39-24.15-14.55-52.26-15.17-80.01-9.48-1.51.39-3.48,1.01-4.61,1.01-3.75,0-6.12-2.98-6.12-6.12,0-3.99,2.36-5.88,5.26-6.5,31.7-7.01,64.1-6.39,91.74,10.14,2.36,1.51,3.75,2.86,3.75,6.39s-2.75,5.96-5.88,5.96ZM177.39,147.86c-2.01,0-3.37-.89-4.76-1.63-24.19-14.32-60.27-20.09-92.36-11.38-1.86.5-2.86,1.01-4.61,1.01-4.14,0-7.51-3.37-7.51-7.51s2.01-6.89,6-8.01c10.76-3.02,21.75-5.26,37.86-5.26,25.12,0,49.39,6.23,68.52,17.61,3.14,1.86,4.37,4.26,4.37,7.63-.04,4.18-3.29,7.55-7.51,7.55ZM189.39,118.36c-2.01,0-3.25-.5-4.99-1.51-27.56-16.45-76.84-20.4-108.74-11.5-1.39.39-3.14,1.01-4.99,1.01-5.11,0-9.02-3.99-9.02-9.14s3.25-8.25,6.74-9.25c13.63-3.99,28.88-5.88,45.48-5.88,28.26,0,57.87,5.88,79.51,18.5,3.02,1.74,4.99,4.14,4.99,8.75,0,5.26-4.26,9.02-8.98,9.02Z"/>
</svg>