          <svg xmlns="http://www.w3.org/2000/svg" viewBox="0 0 256 256">
            <rect class="bgrd" width="256" height="256" />
            <path
              class="icon"
              d="M214.23,123.44c-.11,0-.22,0-.33-.01.73,1.15,2.07,3.3,1.82,4.79-.08.9-1.33,2.82-2.53,3.45,0,0,0,0,0,0,0,0,0,0,0,0-.57.77-1.2,1.55-1.99,2.37.17-.25.34-.48.1-.66-.5.27-.8.54-1.05.82h0s0,0,0,0c.5.52.98,1.04,1.33,1.39.56.56,1.81,1.81,1.95,2.65.14,1.95-1.95,1.53-3.06,2.37-.55.46-1.65,1.88-2.49,1.88-.43,0-.8-.38-.99-1.47.42-.14.98-.28,1.39-.28l-1.67-1.81c.4.12.83.19,1.23.19.8,0,1.47-.3,1.57-1.13,0,0,0,0,0,0,0,0,0,0,0,0-.52-.52-1.09-.81-1.67-.81-.76,0-1.51.5-2.16,1.65.24.17.9.27,1.14.44-.72.81-1.4,1.26-2.06,1.46.32-.66.7-1.19,1.26-1.4,0,0,0,0,0,0-.56.2-.94.74-1.26,1.4,0,0,0,0,0,0-.75,1.55-1.18,3.77-2.97,3.77-.07,0-.15,0-.23-.01-.14,1.12.7,1.67.14,2.65-.35.51-.69.7-1.02.7-.57,0-1.09-.58-1.63-1.12-.14.14-.42.55-.56.69.42.56,1.25.56,1.67,1.11.56.7.56,1.53,1.25,2.23-.19.03-.37.05-.54.05-1.16,0-2.13-.67-3.07-1.35-.94-.67-1.85-1.35-2.89-1.35-.37,0-.75.08-1.16.28,1.82,1.53.43,1.81-.97,3.06.7.7,1.25,1.39,2.23,1.81.57.14,2.23,0,2.65.42,1.35,1.43-.06,1.79-1.63,1.79-1.02,0-2.11-.15-2.55-.26,0,.14.14.27.14.42-1.06-.21-2.13-.51-3.26-.51-.34,0-.69.03-1.05.09.42.27.83.97,1.12,1.24-.84.29-1.81.56-2.51.84-.21-1.11-.84-1.46-1.55-1.46-.58,0-1.22.23-1.74.46.33.96.88,1.99.83,2.36-.15.95-.65,1.84-1.42,1.84-.27,0-.57-.11-.9-.36-1.54-.94-.25-1.44-.13-2.28-.04,0-.07,0-.11-.01-.98-.13-1.39-.97-.98-1.8.11-.2.25-.36.42-.49h0s.04-.02.05-.03c-.02.01-.04.02-.05.03-.63-.6-1.62-.54-2.7-1.54-.51-.56-.78-1.27-.98-1.91.1.13.2.24.3.36.47.46.92.66,1.34.78-.42-.12-.87-.32-1.34-.78-.1-.11-.2-.23-.3-.36-.08-.27-.15-.51-.23-.74.07.23.14.47.22.74-.18-.23-.34-.49-.5-.76-.73.3-1.36.63-1.8,1.02.01.33.04.65.06.98-.23.11-.46.23-.69.35.01.18.05.37.13.57-.09-.15-.21-.3-.34-.45-1.09.59-2.2,1.21-3.53,1.21-.07,0-.13,0-.2,0-.07-.13-.15-.25-.25-.37h0c.1.12.18.24.25.37h0c.29.54.29,1.17-.22,1.93-.54.82-1.61,1.09-2.78,1.09-.88,0-1.81-.15-2.63-.33.07-.05.15-.09.23-.14-.02,0-.03,0-.05-.01.02,0,.03,0,.05.01-.08.05-.16.09-.23.14h0c-1.6,1.01-2.34,2.64-3.93,3.69.44,1.37,2.41,2.99,2.4,4.38,0,.1-.66,1.06-.73,1.32-.28,1.08.53,2.76-.73,3.34-.71-.64-.99-1.61-1.47-2.43-.99.59-1.79,1.5-2.71,2.16-.5.36-.9.51-1.24.51-.89,0-1.38-1.05-2.27-2.15.03,1.61-.03,4.78-2.29,4.85h-.03c-1.48,0-4.27-3.15-3.71-4.59.41-1.04,2.67-1.3,1.13-2.95-.31-.33-.63-.46-.94-.46-.59,0-1.2.45-1.83.9-.63.45-1.28.9-1.96.9-.13,0-.27-.02-.4-.05-1.17-.34-1.1-.92-1-1.94.05-.52.46-.77.41-1.43-.08-.98-1.1-1.69-1.33-2.62-.27-1.09.27-2.15,1.14-2.83h0s0,0,0,0c.16-.23.35-.44.58-.64.04-.01.09-.03.13-.04h0s-.09.03-.13.04c0,0,0,0,0,0-1.16.34-2.26.62-2.9.9-.21-.36-.46-.7-.76-1.02-.22.02-.44.04-.65.06.02-.05.04-.1.06-.15-.02.05-.04.1-.07.15,0,0,0,0,0,0-.1.2-.22.38-.35.54-.41.49-.92.74-1.38.74-.55,0-1.04-.37-1.2-1.15h0s0,0,0,0c-.37,0-.59.02-.62.07-1.74,2.55-3.88,4.9-5.8,6.77-.28-.29-.41-.62-.42-.97,0,.35.13.68.41.97-.88.85-1.7,1.59-2.42,2.22.73-.63,1.55-1.37,2.42-2.22.37.37.99.68,1.96.9.13.02.26.02.38.02,2.87,0,5.66-4.06,7.74-4.94.02,2.27-.04,4.43.14,6.52-1.39.66-2.74,1.68-4.46,1.68-.14,0-.29,0-.44-.02.05-1.23-.46-1.93-1.26-1.93-.39,0-.84.17-1.34.52,1.68,1.65,3.57,3.69-.12,4.16-.27.04-.51.06-.73.06-1.88,0-1.74-1.53-3.33-2.73-.82-.62-1.78-.67-2.36-.87h0s0,0,0,0c-.72.57-1.18.89-1.25.89.11,4.57.24,9.45.35,14.25-.11-1.56-.23-3.12-.35-4.67.28,4.1.59,8.13.78,10.87.02.27.04.55.05.81.35-.04,1.08.21,1.08.21,0,0,0,0,0,0,.54.32,1.02.2,1.78.43.42.13,1.89.36,3.59.69-.68.68-1.24,1.32-1.34,1.91-.03.18-.04.34-.06.51.02-.17.03-.33.06-.51.1-.59.66-1.23,1.34-1.91,4.56.87,10.81,2.42,3.12,4.42.66-.16,1.51-.23,2.49-.23.04,0,.08,0,.12,0-.22.15-.45.29-.68.43.23-.14.46-.28.68-.43.14,0,.28,0,.43,0,0,.11-.02.22-.03.34.01-.11.03-.23.03-.34,9.47.25,29.6,6.8,23.51,13.9-1.54-.5-4.33-2.22-7.44-4.04-.99.81-2.01,1.54-2.62,2.09,1.67,1.15,6.73,2.25,4.83,5.05-.54.82-1.61,1.09-2.78,1.09-1.64,0-3.5-.52-4.4-.78-.09-.39-.23-.71-.42-.96,1.05,4.14-7.87,4.57-11.25,5.41,1.39,2.68,6.14,6.29,1.68,8.65-.46.26-.97.37-1.5.37-2.99,0-5.58-2.2-7.05-3.62.92-3.35-2.44-5.03-5.39-5.03-.19,0-.37,0-.56.02.1-.43.23-.85.38-1.26,0,0,0,0,0,0,0,0,0,0,0,0-.54-.47-.84-1.05-.77-1.68-1.06,1.98-2.1,3.89-3.01,5.81-1.52-.34-2.99-.59-3.93-.87-.08-.02-.15-.05-.23-.08.08.03.15.05.23.08.94.28,2.41.53,3.93.87-.21.44-.4.88-.6,1.32.19-.44.39-.88.6-1.32,1.06.23,2.14.51,3.06.88.04.43.12.84.22,1.23,0,0,0,0,0,0-.1-.38-.18-.79-.22-1.23,0,0,0,0,0,0-.1-1.07-.01-2.27.26-3.46,2.12,2.48,2.48,5.22,1.67,7.06-.17-.14-.34-.28-.51-.44h0c-.42-.4-.8-.92-1.08-1.67.28.76.67,1.28,1.08,1.67-.26.69-1.52-.13-1.45.25-.1.07-.23.13-.34.19-.44.07-.84.1-1.21.1-2.47,0-2.56-.03-3.93-1.43-.59-.61-1.22-1.22-1.98-1.72,0,0,0,0,0,0-1.25-.09-2.5-.35-3.66-1.09-.1,0-.2,0-.3,0-.44,0-.91.03-1.41.09-.03-.91-.31-2.01-.64-3.1.33,1.09.61,2.19.64,3.1-.3.04-.61.09-.92.14.04.27.04.55.04.85h0c0-.3,0-.58-.04-.85.32-.06.63-.11.92-.14.04,1.2-.36,2.05-1.67,2.05-.57,0-1.31-.17-2.27-.53-1.05-.36-1.68-.78-2.07-1.25h.06c1.12,0,2.25.15,3.36.36-1.11-.21-2.25-.36-3.36-.36h-.06c-.38-.47-.54-1-.63-1.59.1.59.25,1.12.63,1.59-.75,0-1.48.07-2.19.23-.11,2.04-.33,1.51.67,3.55-1.99-1.56-1.54-1.93-4.59-1.93-.38,0-.79.05-1.25.14-1.37-1.03-2.98-1.87-.95-3.83-4.95-2.5-4.69-4.9.65-6.45-6.94-.47-13.59-1.56-16.58-2.18.58-.2,1.21-.27,1.88-.27.83,0,1.71.11,2.56.23.86.11,1.69.23,2.45.23.51,0,.99-.05,1.4-.19,3.84-1.32,1.11-1.27.77-4.05-.69-5.95,1.14-10.66,8.57-12.01,1.26-.23,2.57-.37,3.9-.42,1.07.62,2.12,1.32,2.86,2.23-.74-.91-1.79-1.6-2.86-2.23h0c-.54-.32-1.09-.61-1.6-.91.71-.45,1.21-.85,1.54-1.22,1.26-.45,2.49-1.03,3.07-1.41,1.02,0,2.36-.29,3.63-.58,1.27-.29,2.46-.57,3.2-.57.12,0,4.79-.03,5.46-.01-.01-1.14-.01-2.18,0-2.96.07-2.39.43-6.29.54-8.71.2-2.86.13-5.56.25-8.21-.11-3.69-.05-7.73.09-9.9,0-.03,0-.05,0-.08-.02-.03-.04-.05-.04-.08,0-.05.02-.08.03-.12,0-.25-.02-.51-.03-.76.06.02.12.03.19.04-.06-.01-.13-.03-.19-.04,0-.03,0-.05,0-.08-.72-.38-1.41-.79-2.07-1.2-.04.11-.09.22-.16.33-.34-.22-.67-.38-.97-.45-1.24-.78-2.42-1.8-3.52-2.93.18,0,.36-.02.55-.05.28.25.56.49.85.73-.29-.24-.57-.48-.85-.73.16-.02.32-.05.48-.08,0,0-.01.01-.02.02,0,0,0,0,0,0,0,0,.01-.01.02-.02.3-.06.6-.13.91-.21.92.8,1.83,1.48,2.66,1.98-.83-.5-1.73-1.18-2.66-1.98,0,0,.01,0,.02,0,0,0-.01,0-.02,0-.02-.02-.05-.04-.07-.06.02.02.05.04.07.06-.31.09-.61.16-.91.21h0c-.16.03-.32.06-.48.08-.09-.08-.18-.17-.27-.25.09.08.17.17.27.25-.19.02-.37.04-.55.05h0s-.09,0-.14,0c.05,0,.1,0,.14,0,1.1,1.13,2.28,2.15,3.52,2.93-.1-.02-.19-.03-.28-.03-.13,0-.25.02-.36.07-.55.22-.86.68-1.01,1.25,0,0,0,0,0,0-.37,1.42.21,3.53.45,4.41-.81-.45-1.59-1.15-2.41-1.75.66-.77,1.17-1.73,1.22-2.28.03-.15.04-.31.03-.48.16.03.33.05.5.07-.17-.02-.34-.04-.5-.07h0s0,0,0,0c0,.17,0,.33-.03.48-.05.55-.56,1.5-1.22,2.28-.15-.11-.3-.21-.45-.31.15.1.3.2.45.31-.58.68-1.28,1.22-1.89,1.24-.09.57-.35,1.19-.72,2.06-.11.25-.21.55-.32.84-.12-.06-.23-.1-.34-.15-.21.4-.38.87-.52,1.37-.6.42-1.24.39-1.76.93-1.4,1.46-.04,1.53-.12,3.17,0,.12-.01.25-.03.36-.19.13-.39.22-.62.29.11-1.67-.99-2.94-2.1-4.21-.69,1.87.01,4.21,1.88,4.27-.14.02-.27.03-.39.03-1.33,0-1.66-1.2-2.74-1.38l-2.04-1.7c.16-.14.3-.36.39-.68.41-1.45-2.28-3.74-3.03-4.64.24.01.82.13,1.42.21-.75-.59-1.44-1.19-1.94-1.54-.59,1.4-.71,4.97-2.6,4.97-.21,0-.44-.04-.69-.14-1.81-.63-1.51-4.32-1.4-5.63,1.89-.93,1.21-3.15.02-4.3-.1.17-.12.36-.03.6-.03-.06-.08-.12-.13-.18,0-.03.01-.06.02-.09,0,.03-.01.06-.02.09-.02-.02-.04-.04-.06-.06.02.02.04.04.06.06-.18.76-.49,1.4-.89,1.89.02-.65.14-1.35.32-2.02-.18.67-.3,1.37-.32,2.02-.22.28-.48.5-.74.69.26-.19.52-.41.74-.69-.01.69.07,1.33.26,1.84-.42-.3-.83-.63-1.25-.97,0,0,0,0,0,0-.1-.08-.19-.17-.29-.25.1.08.19.17.29.25-.38.22-.79.34-1.17.34-.72,0-1.36-.4-1.7-1.27h0s0,0,0,0c-.75.25-1.54.44-2.03.44-.13,0-.25-.02-.33-.05-.71-.28-.79-.76-.97-1.46.01,0,.03-.01.04-.02,0,0,0,0,0,0-.01,0-.03.01-.04.02,0,0,0,0,0,0-1.45.53-2.91.77-4.22.69,0,0,0,0,0,.01h0c-.63,1.06-1.72,2.2-2.61,2.2-.02,0-.04,0-.06,0-1.39-.14-2.14-1.68-2.82-3.39h0s0,0,0,0c-.06,0-.12,0-.18,0-.34,0-.73.05-1.08.15.2-.47.54-.77.93-.99.08.22.17.43.25.65-.08-.22-.17-.43-.25-.65.07-.04.16-.08.23-.12.04,0,.07,0,.1-.01.17-.02.31-.05.47-.08-.15.03-.3.05-.47.07-.03,0-.06.01-.09.01,0,0,0,0,0,0-.08.04-.16.08-.24.12-.01-.03-.02-.06-.03-.09h0c-.14-.35-.27-.7-.41-1.03.14.34.28.68.41,1.03-.23.02-.43.04-.63.04-.38,0-.71-.05-.98-.13-.02.15-.04.3-.04.46-.8.02-1.61.07-2.42.13.56,1.45,1.18,2.84,1.18,3.46-.13,1.63-.58,2.42-1.2,2.67-.68-.06-1.33-.17-1.92-.33,0,0,0,0,0,0,.59.15,1.24.26,1.92.33-.04.02-.08.02-.12.04.04-.01.08-.02.12-.03.52.05,1.05.07,1.6.07,4.41,0,9.76-1.48,12.42-3.6.24,3.17,5.11,2.93,7.54,3.65-2.49,3.12-.56,4.46,1.13,6.45-.57.13-1.12.2-1.65.2-2.16,0-3.84-1.16-3.69-4-1.32.35-2.14,1.37-2.16,2.72-2.02.05-4.1.34-6.12.34-.32,0-.63,0-.94-.02.34-3.33,5.46-2.34,6.11-4.83.38-1.44-.54-2.13-1.66-2.13-1.27,0-2.82.9-2.99,2.61-1.11.05-5.54,1.11-8.89,1.11-2.8,0-4.85-.75-3.54-3.46,0,0,0,0,0,0,.01-.04.04-.07.05-.1.21-.41.68-.7,1.25-.92-.57.22-1.04.51-1.25.92-.02.04-.04.07-.05.1-1.07-.74-2.12-1.7-2.81-2.18-.59,1.4-.71,4.96-2.6,4.96-.21,0-.44-.04-.7-.14-.58-.2-.94-.71-1.16-1.36h.05c.27,0,.64.02,1.01.07-.37-.05-.74-.07-1.01-.07h-.05s0,0,0,0c-.07,0-.14,0-.19,0,.05.53-.27,1.04-.72,1.38-.51-.13-1.03-.2-1.55-.25,1.36-1.26-2.36-1.5-2.96-2.04-1.09-.95.11-1.07-.2-1.61-.25-.42-1.57-.99-2.09-1.09-.06-.01-.14-.02-.23-.02-.3,0-.72.06-1.17.11-.34-.48-.75-.97-1.11-1.48.64-.22,1.39-.34,1.63-.67,1.25-1.65.06-2.2-1.41-2.2-.29,0-.59.02-.89.06.07-.14.16-.28.28-.41.26-.28.64-.46,1.09-.58.09.01.17.03.26.03.34-.03.61-.09.82-.17.09,0,.18,0,.27,0,.37,0,.76.02,1.15.06.09-.55.31-1.16.6-1.79.02,0,.04,0,.06,0,0,0,0,0,0,0-.02,0-.04,0-.06,0,0,0,0,0,0,0-.51.02-1,.02-1.47,0,0,0,0,0,0,0-.09,0-.18-.01-.28-.02,0,0,0,0,0,0,.1,0,.19.01.28.02.11.09.23.18.36.26-2.01.82-4.29.84-5.38,1.42-.75.01-1.64.55-1.74,1.55-.36,0-1.32.21-2.43.38-.47-1.14-.79-2.43-.8-3.46.72-.48,1.16-1.05,1.48-1.95.54.06,1.25.37,2.16,1.01.07-.48-.25-1.03-.75-1.62,0,0,0,0,0,0,0,0,0,0,0-.01-.57-.12-1.07-.29-1.4-.56-.47-.38-.72-.96-.72-1.53,0,0,0,0,0,0,0,0,0,0,0,0-2.14-2.01-4.11-4.16-.46-5.62.06-.02.14-.04.23-.04.56,0,1.52.47,2.55.94,1.03.48,2.12.95,2.92.95.35,0,.64-.09.85-.31,0,.02,0,.05,0,.07,0-.02,0-.05,0-.07,0,0,.02-.02.03-.03.04-.16.12-.31.23-.43,0,0,0-.01,0-.02,0,0,.01,0,.01-.01,0,0,0,0,0,0,0,0-.01,0-.02.01.13-.45.12-1.12-.1-2.09-.13-.04-.26-.07-.39-.09.26,1.29.17,2.4-1.4,2.29-1.67-.1-2.57-2.44-.57-2.74-.83-.33-1.21-1.1-.98-1.96.27-.01.53-.02.78-.03.17-.89-2.72-1.13-3.25-1.6-1.09-.95.11-1.07-.2-1.61-.25-.43-1.57-.99-2.09-1.09-.07-.01-.14-.02-.23-.02-.3,0-.72.06-1.17.11-.34-.48-.75-.98-1.12-1.49.64-.21,1.39-.33,1.63-.67,1.25-1.65.05-2.2-1.43-2.2-.29,0-.58.02-.87.06.07-.14.16-.27.29-.41.26-.28.63-.46,1.09-.57.09.01.17.03.26.03.34-.03.61-.08.82-.17.09,0,.18,0,.27,0,2.18,0,4.99.8,6.03,1,.35.08.8.2,1.28.31-1.57-.93-3.46-1.74-4.17-2.75.88-.91,1.98-1.49,3.11-1.98,0,0,0,0,0,0,0,0,0,0,0,0,.84-.56,1.66-1.1,2.41-1.7.22.13.45.25.69.37.56-.29,1.07-.61,1.5-1.02,3.8-3.58.44-4.95-1.52-7.14,0,0,.01.01.02.02-.12.06-.23.13-.35.19-.52-.41-1.04-.75-1.47-.99.43.24.95.58,1.47.99h0c1.19.93,2.39,2.19,2.66,3.27.28,1.1-.22,2.02-1.13,2.02-.24,0-.51-.06-.8-.2.01-.18-.03-.39,0-.57-.94.23-1.91.27-2.88.27-.32,0-.65,0-.98,0-.06,0-.11,0-.18,0-.21,0-.44,0-.7,0-.17-.47-.4-1.04-.69-1.56,0,0,0,0,0,0,.3.51.53,1.09.69,1.56h0c.09.25.16.47.21.63-1.03,1.09.03,2.42,1.17,2.93-.72.8-1.73,1.42-2.7,1.42-.36,0-.72-.09-1.05-.28-.92-.53-.37-2.34-2-2.43h-.04c-1.23,0-1.67,1.56-2.16,2.1l-.03.08c-.7-.73-1.37-1.41-1.52-1.78-.61-1.87.01-2.42,1.03-2.42,1.19,0,2.94.76,3.84.99,0-.34-.08-.8-.16-1.3.24.02.49.04.74.05-.25-.01-.5-.03-.74-.05h0c-.98-.09-1.87-.3-2.38-.71-.79-.64-.98-1.8-.38-2.61.66.6.98,1.23,1.38,1.71-.4-.48-.72-1.11-1.38-1.71-.1-.09-.21-.18-.32-.27-1.78-1.34-4.22-.02-2.02-3.25.55-1,1.9-1.7,3.1-2.36-.2.98.35,1.81,2.34,2.26.07,0,.14.02.21.02.07.04.15.07.22.1-.08-.03-.15-.06-.22-.1,0,0,0,0,0,0-1.1-.62-1.43-2.26.22-2.51-.83-.33-1.21-1.1-.98-1.96,1.81-.07,3.34-.07,3.79-2.14.26-1.21-.02-1.42-.46-1.53h0c-.09-.02-.19-.04-.28-.06.1.02.19.04.28.06-.19.18-.36.34-.5.48-.99.94-2.7,2.34-3.76,3.71-2.66-2.14-11.57-.24-6.81-4.67-1.14-.66-2.69-.59-4.02-.63.28-.5.44-.88.52-1.21.61-.67,1.15-1.4,1.38-1.81-.76-.43-1.18-1.33-1.23-2.26.64-.58,1.22-1.22,1.78-1.9.11.71.4.99.81.99,1.3,0,3.73-2.92,4.71-3.18.35-.09.62-.13.84-.13,1.23,0,.68,1.29,1.55,1.34h.05c.85,0,2.75-1.25,3.35-1.87.34-.34.73-1.15,1.17-2,.53-.01,1.09-.05,1.66-.09,0,0,0,0,0,0h0c.19-.73-.24-1.62-.81-2.16-.23,1.59-1.3,2.51-2.2,2.51-.77,0-1.43-.67-1.35-2.16.54.22,1.36.36,1.88.76-.27-1.32-1.88-1.96-2.04-3.56,1.04-.21,1.29-.95.5-1.64-.47.73-1.01,1.53-1.52,1.53-.3,0-.59-.28-.84-1.02-.54-1.42.49-1.46,1.05-2.63.43-.92-.08-1.82.64-1.82.21,0,.52.07.98.25.91.24,1.65,1.49,2.34,2.09,1.5-1.01-.32-5.38,1.09-5.38.26,0,.64.15,1.17.5.24-.72.03-1.57-.09-2.32.31.09.56.13.75.13.81,0,.78-.65,1.62-.83.46-.12.84-.17,1.17-.17,1.29,0,1.76.79,3.21,1.18.43.14.72.19.93.19.14,0,.24-.03.32-.07,0,0,0,0,0,0,0,0,0,0,0,0-.61-.14-1.15-.37-1.28-.83-.2-.71.73-1.35,1.43-1.35.14,0,.28.03.39.09-.08-.15-.14-.27-.14-.27.03,0,.06,0,.09,0,.26.38.8.65,1.52.85,0,0,0,0,0,0-.72-.2-1.27-.46-1.52-.85,0,0,0,0,0,0-.14-.21-.19-.46-.14-.76-.53.71-1.41,1.21-2.21,1.21-.64,0-1.23-.32-1.56-1.12.27-.32.63-.49,1.01-.49.35,0,.71.14,1.05.43.02-.88.24-1.08.57-1.08.25,0,.57.13.91.14.18-.01.41-.03.67-.04-.16.24-.26.45-.33.65.07-.2.17-.41.33-.65,0,0,0,0,0,0,.08-.12.17-.24.27-.36,0,0,0,0,0,0,.3-.38.69-.8,1.2-1.27-.23-.13-.48-.24-.73-.34.25.09.5.2.73.34-.51.47-.9.89-1.2,1.27.06-.62,0-1.25-.17-1.81,0,0,0,0,0,0-1.33-.34-2.85-.3-4.2-.34.39-.68.61-1.22.73-1.68.84-.92,1.59-1.94,1.91-2.51-1.06-.59-1.63-1.85-1.71-3.13.44-.4.87-.82,1.27-1.26,0,0,0,0,0,0h0c-.42-.31-.34-.82.68-1.76-.76-.44-1.78-.4-2.68-.42.19-.33.3-.59.36-.81.4-.44.76-.93.91-1.2-.51-.28-.78-.89-.82-1.5.43-.39.82-.82,1.18-1.27.07.47.27.66.54.66.87,0,2.49-1.95,3.14-2.12.23-.06.41-.09.56-.09.83,0,.46.86,1.04.89h.03c.56,0,1.84-.84,2.25-1.24.22-.23.48-.78.77-1.34.65-.02,1.35-.09,2.04-.11-.19.71-.54,1.47-.39,1.9.19.56.42.92.66,1.13,0,0,0,0,0,0,.18.16.38.23.57.23,0,0,0,0,0,0-.2,0-.39-.07-.57-.23-1.04-1.61,2.6-2.62,3.88-3.28-.79-.93-3.57-2.37-2.03-3.72.26-.23.59-.32.96-.32,1.15,0,2.65.89,3.29,1.28-.05,1.13.89,1.58,1.86,1.58.32,0,.65-.05.95-.14-.03,1.48-.68,3.06-2.08,3.32-.06.01-.11.02-.17.02-.37,0-.71-.21-1.05-.42-.34-.21-.69-.42-1.08-.42-.25,0-.52.09-.81.32-.98.8-.27,2.29-.29,3.04l.03.08c-.5-.04-.97-.08-1.37-.13.04-.07.09-.14.13-.21.01-.06.04-.14.07-.21-.02.07-.05.14-.07.21-.04.07-.08.13-.13.21-.42-.05-.76-.12-.94-.21,0,0,0,0,0,0,0,0,0,0,0,0,.18.1.52.16.94.21-.4.6-.9,1.21-1.43,1.8h0c-.55.61-1.13,1.18-1.66,1.68.53-.5,1.11-1.08,1.66-1.68.45.45.38,1.25.94,1.49.02.07.04.14.07.21.28.6.66.74,1.08.74h0c-.41,0-.8-.14-1.08-.74-.03-.07-.06-.14-.07-.21.07.03.15.04.24.05-.09,0-.17-.02-.24-.05-.03-.14-.05-.29-.05-.44.54.04,1.11.1,1.66.15-.07.03-.15.06-.22.09.07-.03.14-.06.22-.09.24.02.48.04.72.05-.03.05-.06.1-.09.15.03-.05.06-.1.09-.15-.24,0-.48-.03-.72-.05,1.25-.56,2.8-1.63,3.41-2.25.46-.46,1.01-1.59,1.61-2.77,1.34-.04,2.81-.19,4.24-.24-.06.21-.12.42-.19.63-.05.03-.1.05-.14.08-.46.26-1.34.71-2.32,1.26.98-.55,1.86-1,2.32-1.26.05-.03.1-.05.14-.08.73-.38,1.85-.91,2.63-1.51.02.03.04.05.06.07-.24.21-.44.48-.57.82-.54,1.35.75,2.55,2.38,3.5,0,0,0,0,0,0-1.63-.94-2.92-2.15-2.38-3.5.13-.34.33-.61.57-.82.06.07.13.13.2.2-.07-.07-.15-.13-.2-.2.45-.38,1.07-.55,1.77-.55.29,0,.59.03.9.08h0s0,0,0,0c.07-.13.1-.28.09-.47-.02-.28-.09-.46-.19-.59.11-.07.21-.15.3-.24-.09.09-.19.17-.3.24,0,0,0,0,0,0-.5.32-1.2.47-1.86.63.27-.54.08-1.11-1.01-1.69-.24-.1-.5-.14-.76-.14-1.6,0-3.55,1.58-4.76,1.74.35-1.33.73-2.58.95-3.83.69-.13,1.4-.38,2.13-.38.32,0,.65.05.98.18-.25.83.04,1.36.68,1.36.18,0,.38-.04.61-.12-.65-1.12-1.36-2.45.19-2.45.15,0,.33.01.54.04.08,0,.15.02.22.03-.1-.49-.07-.62.7-1.08.33-.2.58-.27.78-.27.3,0,.48.17.65.34.17.17.33.34.58.34.04,0,.09,0,.14-.02.97-.22.08-.9-.32-1.11-.88-.46-1.58.09-1.58-1.04,0-.97,2.09-1.69,1.47-2.42.33.26,1.11.42,1.85.42.65,0,1.27-.12,1.51-.4.83-.95-.92-1.12-1.71-1.12-.05,0-.09,0-.13,0,.23-.36,1.69-1.6,2.16-1.6h0c.54,0,.65.35.99.79.57.74.86,1.07,1.33,1.07.34,0,.78-.17,1.49-.47-.21-.5-1.22-.71-1.21-1.33,0-.48,1.2-1.16,1.56-1.51.35.29.87.4,1.38.4.31,0,.61-.04.87-.1.22-.06.53-.19.78-.37-.06,1.23-1.95,1.39-1.21,2.54.48.63,2.53,1.02,4.03,1.02.62,0,1.14-.07,1.43-.21v-.03c.73.35,1.65.58,2.41.61.73-1.34,1.28-2.5,1.35-3.21-.17-.07-.36-.13-.58-.16.93-.58,1.25-.93,1.69-1.9.18-.39.11-.7.12-.99.17-.22.3-.46.41-.71.13-.1.31-.21.55-.31.41-.2.75-.29,1.02-.29,1.17,0,1.14,1.63.87,3.17-.23-.03-.48-.08-.76-.15.28.07.53.12.76.15h0c.18.02.34.04.49.05.4.23.81.44,1.2.63.08-.12.16-.23.22-.35.01.12.04.24.08.36-.04-.12-.07-.25-.08-.36.12-.24.18-.48.15-.71h0c-.06-.44-.45-.83-1.35-1.06.97-.89,2.26-1.39,2.76-1.95.43-.17.82-.66.66-1.25.21-.08.7-.4,1.31-.74.5.55.96,1.21,1.19,1.8-.31.42-.43.83-.42,1.41.88-.17,1.7-.3,2.27-.45-.83-1.55-4.29-4.41-1.71-5.81.28-.16.58-.22.89-.22,1.73,0,3.9,2.04,4.76,2.85-.36,1.4.54,2.28,1.71,2.67-.23-.45-.94-.52-1.37-1.38-.04-.1-.09-.2-.13-.28.1-.18.25-.33.42-.47.51,1.06,1.62,1.62,2.84,2.08.01.02.03.03.04.05-.01-.02-.03-.03-.04-.05.03.01.06.02.08.03,0,.02,0,.04,0,.06h0s0-.04,0-.06c.26.09.52.18.79.27-.07-.57-.3-1.11-.64-1.56,0-.38-.02-.75-.09-1.08.03,0,.06,0,.1,0,.15,0,.31-.02.47-.06l1.58.3c-.13.3-.27.59-.4.89.14-.3.28-.59.4-.89h0c.03-.07.06-.14.09-.21.09,0,.18,0,.27,0,.22,0,.44,0,.67-.01.22,0,.44,0,.66,0,.95,0,1.92.1,2.82.69-.34.61-.41,1.13-.25,1.51.12-.18.24-.34.37-.48.21.01.4.03.62.07.46.07.25.68.37,1.05h0s.04.07.06.1c-.02-.03-.05-.06-.06-.1.11,0,.22-.01.34-.03-.52-1.59-1.05-3.44.45-3.44.33,0,.76.09,1.3.29,2.21.74,1.23,1.93,2.06,3.67.84,1.74,3.24,1.7.26,3.32-.07.05-.14.09-.22.13h0s-.08.03-.11.04c.04-.02.08-.03.11-.04-.01.13-.02.25-.04.38-.16-.06-.33-.12-.5-.17,0,0,0,0,0,0,0,0,0,0,0,0-.76.22-1.7.23-2.57.24,0,0,0,0,0,0,.88-.01,1.81-.02,2.58-.24.17.05.34.1.5.17-.06.62-.1,1.24-.09,1.79-.02-.55.03-1.17.09-1.79,1.15.45,1.86,1.29,1.39,2.82,3.83-.05,2.82-5.54.78-7.14,1.64.22,3.38.65,5.02,1.03-.02.07-.04.15-.07.24-.15.39-.51.53-.73.87,0,.02,0,.04,0,.05-.21.05-.42.09-.63.13,0,.45.23.87.54,1.27,0-.06,0-.11-.01-.17,0-.15-.04-.32-.05-.49.08,0,.16,0,.23-.01,0-.23-.03-.48-.08-.74.75-.18,1.51-.43,2.1-.87-.43-.09-.86-.19-1.31-.29.18-.77-.5-.57-.88-1.31l-.09-.19c.07-.11.15-.21.27-.28.4.82,1.36,1.17,2.33,1.5-.11-.88-.85-1.69-1.7-1.69-.17,0-.35.03-.52.1.27-.17.52-.22.74-.22.18,0,.36.03.53.07.18.04.35.07.54.07.1,0,.2-.01.3-.04l1.61.31c-.05.11-.07.25-.03.43.17.79,2.3,1.23,2.96,1.47-.36.14-2.32.52-1.6.93-.21-.09-.43-.16-.66-.22.05.07.1.15.15.24-.96.62-2.34.34-3.31.91-.84.5-.65.36-.06.78,0,0,0,0,0,0,.02.02.05.04.08.06.66.49,1.61.34,1.55,1.48-.01.21-.07.36-.15.5.08-.14.14-.29.16-.5.06-1.14-.9-.99-1.55-1.48-.03-.02-.05-.04-.08-.06.43-.74,1.57-.92,2.66-.92.43,0,.85.03,1.23.06-.58,1.29-2.56,2.91-2.37,4.48,0,0,0,0,0,0,0,0,0,0,0,0,.32.07.61.1.88.1,1.24,0,2.06-.74,2.55-2.43-.02.48.83,1.04,1.44,1.04.15,0,.29-.04.39-.12.73-.6-1.47-2.37-1.73-2.82.21,0,.44-.01.69-.01,1.62,0,3.77.25,3.21,2.09,2.41-.03,1.77-3.49.49-4.5,1.31.18,2.73.58,3.98.84-.48.36-1.12.52-1.72.63,0,.68.81,1.26,1.21,1.77-.25-1.14.78-1.36,1.76-1.36.27,0,.53.02.77.04-.4.88-1.83,2-1.43,3.07.04,0,.08,0,.12,0,.4,0,.83-.12,1.19-.33-.31.64-.3,1.52.27,1.92-1.47-.21-3.11-.67-4.45-1.26-.5-.22-.89-.56-1.43-.56-.13,0-.26.02-.41.07-.71.22-.7.8-1.21,1.17-.38.28-.84.32-1.31.32-.1,0-.21,0-.31,0-.11,0-.22,0-.33,0-.43,0-.84.04-1.17.29-.41.31-.55.65-.51.98.32-.07.65-.17.98-.27.76.28,1.12.88,1.96,1.02.26.04.48.06.66.06,1.39,0,.93-1.09,2.3-1.93.01,0,.02-.01.03-.02-.27-.63-.35-.92-.24-.92.14,0,.6.46,1.39,1.29.48.74.44,1.54.07,2.27.2.43.42.89.66,1.4l-.21,2.32c1.71-1.01,3.98-1.63,6.29-2,.13.9.25,1.82.41,2.72-.11.83-.11,1.74-.17,2.47.06-.73.06-1.64.17-2.47,0,0,0,0,0,0,.13-1.05.44-1.97,1.23-2.24-.79.27-1.09,1.19-1.23,2.24-.16-.9-.29-1.82-.41-2.72,2.34-.37,4.72-.49,6.61-.49.21,0,.41,0,.6,0,0,0,0,0,0,0,.94.01,1.72.05,2.26.1-1.18.95-3.1.16-4.08.95-1.8,1.43-.45,1.09-.09,3.16.07.39.12.77.17,1.15,0,0,0,0,0,0,.02.19.04.38.06.57-.02-.19-.03-.38-.05-.57.06-.31.23-.63.52-.99.24-.28.54-.47.87-.64.31.8.6,1.66.91,2.49,0,0,0,0,0,0,.15.42.31.82.47,1.21h0c-.17-.39-.32-.8-.47-1.21.02,0,.04-.01.06-.02.05-.02.11-.03.16-.04.09.46.23.92.39,1.37-.16-.45-.3-.91-.39-1.37.27-.06.5-.09.68-.09,1.25,0,.69,1.3,1.57,1.35h.04c.25,0,.58-.11.95-.27-.73,1.3-1.34,2.62-1.69,3.03,0,0,0,0,0,0,.35-.41.96-1.73,1.7-3.03.89-.4,1.98-1.16,2.41-1.6.24-.24.51-.73.79-1.28,0,0,0,0,0,0,.12-.23.24-.47.37-.72.65-.02,1.34-.08,2.03-.12,0,0,0,0,0,0,.33-.02.66-.04.99-.05,0,0,0,0,0,.01,0,0,0,0,0-.01h0c-.18-.19-.41-.36-.72-.51-.21-.1-.42-.16-.63-.2-.33-.63-.77-1.18-1.52-1.46-1.23-.45-2.47.18-3.51-.79-.08-.07-.15-.15-.21-.22.32-1.82,1.03-2.48,1.93-2.48,1.96,0,4.79,3.16,6.28,4.31.73-1.63.97-5.87,3.16-5.87.28,0,.6.07.96.23,1.75.75,1.81,3.79,1.68,5.79-.43-.02-.85-.39-1.27-1.34,0,0,0,0,0,0,.42.94.84,1.31,1.27,1.33-.03.49-.07.92-.1,1.23-2.29.97-1.56,3.69-.18,5.21-.99.45-2.1.72-3.15.72-.06,0-.12,0-.17,0,0,0,0,0,0,0,0,0,0,0,0,0,0,.03-.01.06-.02.09-.17.26-.34.52-.53.79,0,0,0,0,0,0-.78,1.09-1.76,2.19-2.75,3.2-.08,0-.17-.01-.25-.01-.11,0-.23,0-.35.02,0,0,0,0,0,0,.12-.02.24-.02.35-.02.09,0,.17,0,.25.01-.17.17-.33.34-.5.5h0s0,0,0,0c.06.45.03.96-.16,1.21-.24.21-.46.31-.67.31-.12,0-.24-.03-.37-.1-.02.25-.14.5-.44.7-.08.05-.15.09-.22.11,0,0,0,0,0,0-.08.03-.15.04-.23.04h0s0,0,0,0h0c.07,0,.14-.01.23-.04.21.13.42.24.65.29.54.15.81.21.95.21.39,0-.23-.45.8-.73.91-.23,1.15-.8,1.94-.8.3,0,.68.08,1.2.3.88.39,1.34.76,1.5,1.11-.36.22-.65.51-.9.83.25-.32.54-.61.9-.83,0,0,0,0,0,0,.1-.06.21-.12.32-.18.23-.11.47-.15.71-.15.44,0,.9.14,1.37.28.14.04.27.08.41.12,0,0,0,0,0,0,0,0,0,0,0,0,.2-.43.68-.83,1.5-1.1,0,.34.05.76.05,1.18-.09.03-.19.05-.28.06.09-.01.19-.03.28-.06h0c.35-.1.68-.32,1.01-.71,0,.02.02.04.03.06,0-.02-.02-.04-.03-.06.01-.02.02-.03.04-.05-.01.02-.02.03-.04.05-1.21-2.31-4.8-4.08-5.87-5.73,2.24-.41,4.37-.72,6.41-1.27.33.46.71.91,1.07,1.37,0,0,0,0,0,0,.18.24.36.49.53.74-.17-.25-.34-.5-.53-.74.39-.05.72-.08,1-.08.16,0,.3.01.41.04.15.04.28.08.41.12-.35.34-.74.69-1.06,1.03h0c.32-.35.71-.69,1.06-1.03,1.14.37,1.82.8,2.17,1.29,0,.1,0,.2-.01.3,0-.1.01-.2.02-.3.08.11.14.23.19.35-.04.01-.07.02-.1.04-.04.01-.07.02-.11.04h0c-.22.07-.47.13-.74.13-.04,0-.09,0-.13,0-.85-.07-1.32-.5-1.85-.5-.1,0-.19.01-.3.05-.04-.08-.09-.17-.13-.25.05.08.09.16.13.25,0,0,0,0,0,0,.25.5.42,1.05.47,1.68,0,0,0,0,0,0-.05-.62-.22-1.17-.47-1.68.1-.03.2-.05.3-.05.54,0,1,.43,1.85.5.04,0,.09,0,.13,0,.27,0,.52-.06.74-.13h0s.07-.03.11-.04c.03-.01.07-.02.1-.04,0,0,0,0,0,0,.02,0,.03-.01.05-.02,0,0,0,0,0,0,.18-.06.33-.11.45-.11.29,0,.44.27.45,1.27.05.42-.11.89-.33,1.35-.04-.17-.08-.33-.11-.49.04.16.08.32.11.49-.11.24-.24.47-.36.7-.03-.08-.06-.16-.1-.23.03.08.07.15.1.23-.15.28-.28.55-.38.8.1-.25.23-.52.38-.8.05.13.1.27.15.42.08.24.14.46.18.66h0s0,0,0,0c.13,0,.28-.02.42-.05,0,0,0,0,0,0,.57-.11,1.2-.39,1.8-.67.76-.36,1.48-.71,1.95-.71s.72.39.45,1.58c.77-.03,1.48-.54,2.14-.92.15,1.69.92,1.08,1.5,1.98,1.38,1.91.43,2.57.63,4.44.05,1.13.3,1.3.62,1.3.07,0,.14,0,.22-.02.08-.01.16-.02.24-.02.29,0,.59.12.83.77.4.95-1.28,2.7-1.71,3.5.45.44,1.55.65,2.38.96l1.39-.42c.7.67,1.09,1.61.78,2.47-.45-.1-.92-.34-1.39-.58-.13.21-.33.43-.62.69-.55.46-1.4.65-2.32.65-.12,0-.24,0-.36-.01-.02,1.1.6,2.26-.21,3.14,0,0,0,0,0,0-.07.02-.14.06-.23.11.08-.05.16-.09.23-.11,0,0,0,0,0,0,0,0-.02.02-.02.02,0,0,.02-.02.02-.02.23-.06.41-.09.55-.09.83,0,.46.86,1.04.89h.03c.56,0,1.83-.84,2.23-1.24.22-.23.48-.77.77-1.33.64-.03,1.34-.09,2.03-.12-.19.72-.53,1.47-.39,1.9.34.98.77,1.36,1.24,1.36.76,0,1.58-1.03,2.13-2.15.09.15.15.31.2.51.1.4.03.86-.13,1.34-.07.07-.14.14-.19.23-.19.33-.3.61-.34.84-1.29,2.07-3.91,4.29-4.77,5.15-.65.62-1.79,1.56-2.49,2.47-.22-.18-.52-.32-.85-.43.15-.06.29-.12.42-.21-.13.09-.27.15-.42.21-.57-.19-1.26-.28-1.92-.37.67.08,1.36.18,1.92.37-.51.19-1.04.29-1.09.96-.02.31.08.73.27,1.2h0c.06.16.14.33.22.5-.08-.17-.15-.34-.22-.5.34-.23.73-.43,1.1-.63-.13.65.23,1.2,1.56,1.5.08.01.17.02.25.02,1.9,0,3.76-2.7,5.14-3.28,0,1.52-.03,2.95.08,4.34-.92.44-1.81,1.12-2.95,1.12-.1,0-.2,0-.3-.01.03-.82-.31-1.28-.84-1.28-.26,0-.57.11-.89.35,1.01.99,2.13,2.19.54,2.64-.27-.15-.51-.3-.72-.44.21.14.46.29.72.44,0,0,0,0,0,0,.52.29,1.12.6,1.73.92.02.89.08,1.82.14,2.76-.08,0-.16,0-.23,0,.08,0,.16,0,.23,0,.02.27.02.54.04.81-.01-.27-.02-.54-.04-.81.55-.02,1.09-.04,1.55-.06.93-.12,1.05-.79,1.47-.79.21,0,.51.17,1.03.66.38.43.64,2.24.18,2.9-.36.32-.68.47-1.01.47-.17,0-.35-.04-.53-.13-.03.38-.21.74-.63,1.05-.24.17-.46.24-.68.24-1.18,0-2.03-2.25-3.08-3.11,0,0,0,0,0,0,0,0,0,0,0,0-.06-.02-.12-.04-.18-.06-.03.04-.05.08-.08.12,0,0,0,0,0,0-.76,1.14-2.14,1.97-3.39,1.97-.58,0-1.14-.18-1.6-.59.24-.41.66-.79,1.29-1.14-.62.35-1.04.74-1.29,1.14,0,0,0,0,0,0,0,0,0,0,0,0,.46.41,1.01.59,1.6.59,1.25,0,2.63-.83,3.39-1.97.05.04.1.07.15.12-.68.97-.71,2.03-1.86,2.67l.72.5c-.32.64-.37,1.18-.2,1.61-.13,0-.28-.03-.44-.06.17.03.32.05.44.06.29.75,1.2,1.16,2.31,1.16.09,0,.2,0,.29,0,0,0,0,0,0,0-.1,0-.2,0-.3,0-1.11,0-2.02-.41-2.31-1.16.03,0,.06,0,.09,0,.74,0,.76-.46.89-.93.12-.46.37-.93,1.53-.93h.07c1.51,0,3.02,3.21,3.9,4.23.85-.4,1.72-1.81,2.59-2.78l.15-2.16c.61-.29,1.27-.45,1.9-.45.71,0,1.4.21,1.95.68-.37.57-.96,1.09-1.54,1.62.21.29.42.68.62,1.22.41,1.13.11,2.62-.52,4.05,1.55.62,3.54.35,4.3,2.09,2.14,5.08-5.21,9.48-9.39,9.48ZM122.13,32.81c-.02-.1-.03-.2-.04-.29-.1-.01-.21-.02-.31-.02-.37,0-.76.08-1.2.36.28-.12.57-.17.84-.17.24,0,.48.04.71.12ZM173.84,51.35c.93-.41,2.27-1.94,3.78-1.94.11,0,.22,0,.33.02-.33-.63-.77-1.18-1.52-1.46-1.23-.45-2.47.18-3.51-.79-.08-.07-.15-.15-.21-.22-.04.24-.07.49-.1.77-.02.68.55,2.13,1.13,3.71l.11-.1ZM186.62,55.31c1.04-.5,1.93-1.18,2.48-1.92.19-.27.31-.53.39-.77-.62.1-1.25.21-1.85.33-.46.62-.83,1.41-1.02,2.37ZM192.75,54.96c-.16.07-.33.13-.49.18.16.07.34.13.48.21.01-.13,0-.25,0-.39ZM109.26,38.58c.12-.24.18-.48.15-.71-.12.21-.17.45-.15.71ZM76.78,48.07c0,.11-.02.21-.03.31.08-.07.16-.15.24-.21-.08-.04-.14-.07-.21-.1ZM75.4,51.51c0-.69-.14-1.35-.41-1.85-.27-.46-.59-.64-.89-.78-.16.8.23,1.85,1.3,2.63ZM52.19,123.44c-.08.07-.15.14-.23.22.09,0,.17,0,.26,0,.02,0,.04,0,.06,0-.03-.08-.06-.14-.09-.21ZM49.63,122.27c-.63.5-1.04,1.55-.75,2.85.45-.53.79-1.12.91-1.67.09-.52-.03-.87-.16-1.18ZM116.91,157.46c-.55.22-.86.68-1.01,1.25.2.02.4.03.6.03.83,0,1.58-.19,1.96-.77,0,0,0,0,0-.02-.31-.16-.61-.34-.92-.53-.1-.02-.19-.03-.28-.03-.13,0-.25.02-.36.07ZM182.95,58.42c-.36.07-.72.19-1.07.34-.29.64-.55,1.26-.73,1.86.57.27,1.15.57,1.91.61.05-1.06.02-2-.11-2.8ZM180.86,61.67c1.65-.37,3.48-.62,5.17-.94-.14-.47-.32-.9-.64-1.29-.68-.8-1.33-1.07-1.97-1.07-.16,0-.32.02-.48.05.13.81.16,1.74.11,2.8-.76-.03-1.34-.33-1.91-.61-.06.19-.11.38-.15.57-.05.19-.09.33-.14.49ZM176.38,155.69c.13.03.24.05.38.07-.03-.17-.06-.34-.08-.51-.1.15-.2.31-.29.44ZM213.62,96.23c-.02-.11-.04-.23-.05-.34-.07.11-.13.21-.19.29.09.03.17.04.25.05ZM215.09,94.04c.41.41.8.51,1.17.58-.07-.89-.78-1.9-2.14-2.43.2.73.54,1.4.97,1.85ZM190.09,52.51c.08-.01.17-.03.25-.04.04-.33.1-.66.17-.99-.07.33-.13.66-.17.99.2-.04.41-.07.6-.11-.09-.33-.22-.64-.42-.91h0s-.03-.04-.05-.06c-.05-.07-.12-.13-.17-.19-.07.44-.14.88-.21,1.32ZM189.65,51.5c0,.16,0,.32-.03.49.02-.17.03-.33.03-.49-.71.19-1.43.67-2.01,1.44.61-.12,1.23-.22,1.85-.33,0,0,0,0,0,0,.2-.03.4-.07.59-.1.06-.43.14-.88.21-1.32-.45-.46-.88-.61-1.31-.61-.39,0-.78.13-1.16.29-.29.63-.54,1.25-.67,1.82-.04.13-.07.25-.1.37.19-.04.39-.08.58-.12.57-.76,1.29-1.25,2.01-1.44ZM118.52,157.87c-.34-.22-.67-.38-.97-.45.3.19.61.37.92.53.02-.03.04-.05.05-.08ZM99.48,42.05c-.2-.49-.68-.86-1.31-1.07.19.4.69.78,1.31,1.07Z"
            />
          </svg>